<svg width="157" height="156" viewBox="0 0 157 156" fill="none" xmlns="http://www.w3.org/2000/svg">
<circle cx="78.8027" cy="78" r="78" fill="#326CC7"/>
<path d="M102.179 48.3994H98.527C97.8574 48.3994 97.3096 48.9472 97.3096 49.6168C97.3096 50.2864 97.8574 50.8343 98.527 50.8343H102.179C102.849 50.8343 103.397 50.2864 103.397 49.6168C103.397 48.9472 102.849 48.3994 102.179 48.3994Z" fill="white"/>
<path d="M108.267 52.0517H98.527C97.8574 52.0517 97.3096 52.5996 97.3096 53.2692C97.3096 53.9388 97.8574 54.4867 98.527 54.4867H108.267C108.936 54.4867 109.484 53.9388 109.484 53.2692C109.484 52.5996 108.936 52.0517 108.267 52.0517Z" fill="white"/>
<path d="M108.267 55.7042H98.527C97.8574 55.7042 97.3096 56.252 97.3096 56.9216C97.3096 57.5912 97.8574 58.1391 98.527 58.1391H108.267C108.936 58.1391 109.484 57.5912 109.484 56.9216C109.484 56.252 108.936 55.7042 108.267 55.7042Z" fill="white"/>
<path d="M54.6983 84.9232H52.2633V82.4883C52.2633 81.8187 51.7155 81.2708 51.0459 81.2708C50.3763 81.2708 49.8284 81.8187 49.8284 82.4883V84.9232H47.3935C46.7239 84.9232 46.176 85.4711 46.176 86.1407C46.176 86.8103 46.7239 87.3582 47.3935 87.3582H49.8284V89.7931C49.8284 90.4627 50.3763 91.0105 51.0459 91.0105C51.7155 91.0105 52.2633 90.4627 52.2633 89.7931V87.3582H54.6983C55.3679 87.3582 55.9157 86.8103 55.9157 86.1407C55.9157 85.4711 55.3679 84.9232 54.6983 84.9232Z" fill="white"/>
<path d="M79.9609 76.401H78.1347C77.4651 76.5531 76.7955 76.127 76.6433 75.4574C76.4912 74.7878 76.9173 74.1182 77.5869 73.966C77.7695 73.9204 77.9521 73.9204 78.1347 73.966H82.7002C83.3698 73.966 83.9177 73.4182 83.9177 72.7486C83.9177 72.079 83.3698 71.5311 82.7002 71.5311H80.2653V70.3137C80.2653 69.644 79.7174 69.0962 79.0478 69.0962C78.3782 69.0962 77.8304 69.644 77.8304 70.3137V71.5616C75.852 71.6224 74.2541 73.2051 74.178 75.1835C74.2693 77.2836 76.0346 78.912 78.1347 78.8359H79.9609C80.6305 78.6837 81.3001 79.1098 81.4523 79.7794C81.6045 80.449 81.1784 81.1186 80.5088 81.2708C80.3262 81.3165 80.1435 81.3165 79.9609 81.2708H75.3954C74.7258 81.2708 74.178 81.8187 74.178 82.4883C74.178 83.1579 74.7258 83.7057 75.3954 83.7057H77.8304V84.9232C77.8304 85.5928 78.3782 86.1407 79.0478 86.1407C79.7174 86.1407 80.2653 85.5928 80.2653 84.9232V83.6753C82.2437 83.6144 83.8416 82.0317 83.9177 80.0533C83.8264 77.9532 82.061 76.3249 79.9609 76.401Z" fill="white"/>
<path d="M48.611 49.6168C47.9414 49.6168 47.3936 50.1647 47.3936 50.8343V53.2692C47.3936 53.9388 47.9414 54.4867 48.611 54.4867C49.2806 54.4867 49.8285 53.9388 49.8285 53.2692V50.8343C49.8285 50.1647 49.2806 49.6168 48.611 49.6168Z" fill="white"/>
<path d="M52.2634 47.1819C51.5938 47.1819 51.0459 47.7297 51.0459 48.3993V53.2692C51.0459 53.9388 51.5938 54.4867 52.2634 54.4867C52.933 54.4867 53.4808 53.9388 53.4808 53.2692V48.3993C53.4808 47.7297 52.933 47.1819 52.2634 47.1819Z" fill="white"/>
<path d="M55.9159 47.1819C55.2463 47.1819 54.6985 47.7297 54.6985 48.3993V53.2692C54.6985 53.9388 55.2463 54.4867 55.9159 54.4867C56.5856 54.4867 57.1334 53.9388 57.1334 53.2692V48.3993C57.1334 47.7297 56.5856 47.1819 55.9159 47.1819Z" fill="white"/>
<path d="M83.9173 99.5327H82.6999C82.0303 99.5327 81.4824 100.081 81.4824 100.75C81.4824 101.42 82.0303 101.968 82.6999 101.968H83.9173C84.5869 101.968 85.1348 101.42 85.1348 100.75C85.1348 100.081 84.5869 99.5327 83.9173 99.5327Z" fill="white"/>
<path d="M86.3523 103.185H82.6999C82.0303 103.185 81.4824 103.733 81.4824 104.403C81.4824 105.072 82.0303 105.62 82.6999 105.62H86.3523C87.0219 105.62 87.5697 105.072 87.5697 104.403C87.5697 103.733 87.0219 103.185 86.3523 103.185Z" fill="white"/>
<path d="M90.0047 106.838H82.6999C82.0303 106.838 81.4824 107.385 81.4824 108.055C81.4824 108.725 82.0303 109.272 82.6999 109.272H90.0047C90.6743 109.272 91.2221 108.725 91.2221 108.055C91.2221 107.385 90.6743 106.838 90.0047 106.838Z" fill="white"/>
<path d="M111.113 43.8491C108.936 42.0686 106.212 41.0946 103.397 41.0946C96.6856 41.0946 91.2223 46.5275 91.2223 53.254C91.2223 56.0694 92.1962 58.7935 93.9768 60.9697L89.3352 65.6112C83.4305 60.5131 74.68 60.5131 68.7601 65.6112L59.9487 56.7999C63.2663 52.5387 62.4902 46.4058 58.2291 43.0882C53.9679 39.7706 47.835 40.5467 44.5174 44.8079C41.1998 49.069 41.9759 55.2019 46.2371 58.5195C49.7677 61.2588 54.6984 61.2588 58.2291 58.5195L67.0404 67.3309C63.9359 70.9072 62.6271 75.6857 63.4641 80.3425L58.6247 82.2752C57.2247 79.5207 54.3484 77.6185 51.046 77.6185C46.3436 77.6185 42.5238 81.4382 42.5238 86.1407C42.5238 90.8431 46.3436 94.6629 51.046 94.6629C55.7485 94.6629 59.5683 90.8431 59.5683 86.1407C59.5683 85.6081 59.5226 85.0906 59.4313 84.5884L64.0881 82.7318C66.5535 90.1279 74.0713 94.5868 81.7413 93.202L82.487 95.4238C78.7433 96.9609 76.1105 100.628 76.1105 104.905C76.1105 110.551 80.7064 115.147 86.3524 115.147C91.9984 115.147 96.5943 110.551 96.5943 104.905C96.5943 99.2588 91.9984 94.6629 86.3524 94.6629C85.835 94.6629 85.3328 94.7086 84.8306 94.7695L84.1001 92.5932C92.3636 89.8235 96.8226 80.8752 94.0377 72.5964C93.3833 70.6637 92.3637 68.868 91.0397 67.3157L95.6812 62.6741C100.886 66.9352 108.556 66.1591 112.817 60.9544C117.078 55.7498 116.317 48.1102 111.113 43.8491ZM52.2635 58.1391C48.2307 58.1391 44.9587 54.8671 44.9587 50.8343C44.9587 46.8015 48.2307 43.5295 52.2635 43.5295C56.2963 43.5295 59.5683 46.8015 59.5683 50.8343C59.5683 54.8671 56.2963 58.1391 52.2635 58.1391ZM51.046 92.228C47.6828 92.228 44.9587 89.5039 44.9587 86.1407C44.9587 82.7775 47.6828 80.0534 51.046 80.0534C54.4093 80.0534 57.1333 82.7775 57.1333 86.1407C57.1333 89.5039 54.4093 92.228 51.046 92.228ZM86.3524 97.5848C90.4005 97.5848 93.6724 100.857 93.6724 104.905C93.6724 108.953 90.4005 112.225 86.3524 112.225C82.3044 112.225 79.0324 108.953 79.0324 104.905C79.0324 100.872 82.3044 97.5848 86.3524 97.5848ZM92.4397 77.6185C92.4245 85.0145 86.4437 90.9953 79.0477 91.0105C71.6516 91.0105 65.6556 85.0145 65.6556 77.6185C65.6556 70.2224 71.6516 64.2264 79.0477 64.2264C86.4437 64.2264 92.4397 70.2224 92.4397 77.6185ZM103.397 63.0089C98.0248 63.0089 93.6572 58.6413 93.6572 53.2692C93.6572 47.8972 98.0248 43.5295 103.397 43.5295C108.769 43.5295 113.137 47.8972 113.137 53.2692C113.137 58.6413 108.769 63.0089 103.397 63.0089Z" fill="white"/>
</svg>
