<svg width="156" height="156" viewBox="0 0 156 156" fill="none" xmlns="http://www.w3.org/2000/svg">
<circle cx="78" cy="78" r="78" fill="#326CC7"/>
<path d="M72.7181 110.029H51.7183C51.0361 110.029 50.483 109.475 50.483 108.793V49.4998C50.483 48.8176 51.0361 48.2645 51.7183 48.2645H61.6005C62.2827 48.2645 62.8358 47.7114 62.8358 47.0292C62.8358 46.347 62.2827 45.7939 61.6005 45.7939H51.7183C49.6716 45.7939 48.0125 47.4531 48.0125 49.4998V108.793C48.0125 110.84 49.6716 112.499 51.7183 112.499H72.7181C73.4002 112.499 73.9533 111.946 73.9533 111.264C73.9533 110.582 73.4002 110.029 72.7181 110.029Z" fill="white"/>
<path d="M106.07 91.4993C105.388 91.4993 104.835 92.0524 104.835 92.7346V108.793C104.835 109.475 104.282 110.029 103.6 110.029H85.0707C84.3885 110.029 83.8354 110.582 83.8354 111.264C83.8354 111.946 84.3885 112.499 85.0707 112.499H103.6C105.647 112.499 107.306 110.84 107.306 108.793V92.7346C107.306 92.0524 106.753 91.4993 106.07 91.4993Z" fill="white"/>
<path d="M103.6 45.7939H93.7177C93.0355 45.7939 92.4824 46.347 92.4824 47.0292C92.4824 47.7114 93.0355 48.2645 93.7177 48.2645H103.6C104.282 48.2645 104.835 48.8176 104.835 49.4998V72.9701C104.835 73.6523 105.388 74.2054 106.071 74.2054C106.753 74.2054 107.306 73.6523 107.306 72.9701V49.4998C107.306 47.4531 105.646 45.7939 103.6 45.7939Z" fill="white"/>
<path d="M75.1887 105.087H55.4242V53.2056H61.6006C62.2828 53.2056 62.8359 52.6525 62.8359 51.9703C62.8359 51.2881 62.2828 50.735 61.6006 50.735H54.1889C53.5067 50.735 52.9536 51.2881 52.9536 51.9703V106.323C52.9536 107.005 53.5067 107.558 54.1889 107.558H75.1887C75.8708 107.558 76.4239 107.005 76.4239 106.323C76.4239 105.64 75.8708 105.087 75.1887 105.087Z" fill="white"/>
<path d="M101.13 96.4404C100.447 96.4404 99.8943 96.9935 99.8943 97.6757V105.087H92.4826C91.8004 105.087 91.2473 105.64 91.2473 106.323C91.2473 107.005 91.8004 107.558 92.4826 107.558H101.13C101.812 107.558 102.365 107.005 102.365 106.323V97.6757C102.365 96.9935 101.812 96.4404 101.13 96.4404Z" fill="white"/>
<path d="M101.129 50.735H93.7177C93.0355 50.735 92.4824 51.2881 92.4824 51.9703C92.4824 52.6525 93.0355 53.2056 93.7177 53.2056H99.8941V77.9112C99.8941 78.5934 100.447 79.1465 101.129 79.1465C101.812 79.1465 102.365 78.5934 102.365 77.9112V51.9703C102.365 51.2881 101.812 50.735 101.129 50.735Z" fill="white"/>
<path d="M88.7767 42.7539H86.3062V39.6175C86.3062 38.9353 85.7531 38.3822 85.0709 38.3822H70.2475C69.5653 38.3822 69.0122 38.9353 69.0122 39.6175V42.7539H66.5417C65.8595 42.7539 65.3064 43.307 65.3064 43.9892V54.4409C65.3064 55.1231 65.8595 55.6762 66.5417 55.6762H88.7767C89.4589 55.6762 90.012 55.1231 90.012 54.4409V43.9892C90.012 43.307 89.4589 42.7539 88.7767 42.7539ZM87.5415 53.2056H67.777V45.2245H70.2475C70.9297 45.2245 71.4828 44.6714 71.4828 43.9892V40.8528H83.8356V43.9892C83.8356 44.6714 84.3887 45.2245 85.0709 45.2245H87.5415V53.2056Z" fill="white"/>
<path d="M81.365 58.1467H73.9533C73.2711 58.1467 72.718 58.6998 72.718 59.382V64.3231C72.718 65.0053 73.2711 65.5584 73.9533 65.5584H81.365C82.0472 65.5584 82.6003 65.0053 82.6003 64.3231V59.382C82.6003 58.6998 82.0472 58.1467 81.365 58.1467ZM80.1297 63.0879H75.1886V60.6173H80.1297V63.0879Z" fill="white"/>
<path d="M75.1885 93.9698H67.7768C67.0946 93.9698 66.5415 94.5229 66.5415 95.2051V100.146C66.5415 100.828 67.0946 101.382 67.7768 101.382H75.1885C75.8707 101.382 76.4237 100.828 76.4237 100.146V95.2051C76.4237 94.5229 75.8707 93.9698 75.1885 93.9698ZM73.9532 98.911H69.0121V96.4404H73.9532V98.911Z" fill="white"/>
<path d="M81.365 76.6759H73.9533C73.2711 76.6759 72.718 77.229 72.718 77.9112V82.8523C72.718 83.5345 73.2711 84.0876 73.9533 84.0876H81.365C82.0472 84.0876 82.6003 83.5345 82.6003 82.8523V77.9112C82.6003 77.229 82.0472 76.6759 81.365 76.6759ZM80.1297 81.6171H75.1886V79.1465H80.1297V81.6171Z" fill="white"/>
<path d="M93.7178 76.6759H86.3061C85.6239 76.6759 85.0708 77.229 85.0708 77.9112V82.8523C85.0708 83.5345 85.6239 84.0876 86.3061 84.0876H93.7178C94.3999 84.0876 94.953 83.5345 94.953 82.8523V77.9112C94.953 77.229 94.3999 76.6759 93.7178 76.6759ZM92.4825 81.6171H87.5414V79.1465H92.4825V81.6171Z" fill="white"/>
<path d="M69.0122 76.6759H61.6005C60.9183 76.6759 60.3652 77.229 60.3652 77.9112V82.8523C60.3652 83.5345 60.9183 84.0876 61.6005 84.0876H69.0122C69.6944 84.0876 70.2475 83.5345 70.2475 82.8523V77.9112C70.2475 77.229 69.6944 76.6759 69.0122 76.6759ZM67.7769 81.6171H62.8358V79.1465H67.7769V81.6171Z" fill="white"/>
<path d="M90.0119 70.4995H78.8944V69.2642C78.8944 68.5821 78.3413 68.029 77.6591 68.029C76.9769 68.029 76.4239 68.5821 76.4239 69.2642V70.4995H65.3063C64.6241 70.4995 64.071 71.0526 64.071 71.7348V72.9701C64.071 73.6523 64.6241 74.2054 65.3063 74.2054C65.9885 74.2054 66.5416 73.6523 66.5416 72.9701H76.4239C76.4239 73.6523 76.9769 74.2054 77.6591 74.2054C78.3413 74.2054 78.8944 73.6523 78.8944 72.9701H88.7767C88.7767 73.6523 89.3298 74.2054 90.0119 74.2054C90.6941 74.2054 91.2472 73.6523 91.2472 72.9701V71.7348C91.2472 71.0526 90.6941 70.4995 90.0119 70.4995Z" fill="white"/>
<path d="M90.0118 86.5582C89.3296 86.5582 88.7765 87.1113 88.7765 87.7935H71.4826C70.8004 87.7935 70.2473 88.3466 70.2473 89.0288V90.264C70.2473 90.9462 70.8004 91.4993 71.4826 91.4993C72.1648 91.4993 72.7179 90.9462 72.7179 90.264H90.0118C90.694 90.264 91.2471 89.7109 91.2471 89.0288V87.7935C91.2471 87.1113 90.694 86.5582 90.0118 86.5582Z" fill="white"/>
<path d="M113.12 79.5085L109.415 75.8026C108.932 75.3204 108.15 75.3204 107.668 75.8026L84.1976 99.2729C84.1706 99.3085 84.1459 99.3455 84.1235 99.3841C84.1 99.4138 84.0642 99.4298 84.0432 99.4607L76.6315 110.578C76.2526 111.146 76.4053 111.913 76.9726 112.292C77.388 112.569 77.9295 112.569 78.3449 112.292L89.4624 104.88C89.4933 104.859 89.5093 104.823 89.539 104.8C89.5773 104.777 89.6145 104.752 89.6502 104.725L113.12 81.2551C113.603 80.7728 113.603 79.9908 113.12 79.5085ZM82.1125 106.817L85.2624 102.092L86.8387 103.667L82.1125 106.817ZM88.7768 102.105L86.8177 100.146L108.541 78.4226L110.5 80.3818L88.7768 102.105Z" fill="white"/>
<path d="M115.591 77.0379L111.885 73.332C111.394 72.858 110.612 72.8716 110.138 73.3623C109.676 73.841 109.676 74.5999 110.138 75.0787L113.844 78.7846C114.076 79.0162 114.39 79.1465 114.717 79.1465C115.4 79.1463 115.953 78.5933 115.952 77.9109C115.952 77.5836 115.822 77.2695 115.591 77.0379Z" fill="white"/>
<path d="M121.767 70.8615L118.062 67.1556C117.579 66.6734 116.797 66.6734 116.315 67.1556L112.609 70.8615C112.127 71.3439 112.127 72.1258 112.609 72.6082L116.315 76.314C116.797 76.7962 117.579 76.7962 118.062 76.314L121.767 72.6082C122.25 72.1258 122.25 71.3439 121.767 70.8615ZM117.188 73.694L115.229 71.7348L117.188 69.7757L119.147 71.7348L117.188 73.694Z" fill="white"/>
</svg>
