<svg width="180" height="24" viewBox="0 0 180 24" fill="none" xmlns="http://www.w3.org/2000/svg">
<path d="M111.439 0H113.276L119.214 20.6354L125.611 0H127.678L134.109 20.6354L140.013 0H141.849L135.191 22.9643H133.09L126.659 2.26569L120.195 22.9643H118.093L111.439 0Z" fill="#1D1D1B"/>
<path d="M111.439 0H113.276L119.214 20.6354L125.611 0H127.678L134.109 20.6354L140.013 0H141.849L135.191 22.9643H133.09L126.659 2.26569L120.195 22.9643H118.093L111.439 0Z" fill="white"/>
<path d="M158.972 14.828C158.972 15.0891 158.938 15.3544 158.938 15.6155H144.081C144.472 19.3215 147.294 21.7514 151.033 21.7514C153.724 21.7514 155.759 20.5049 156.71 18.7656L158.155 19.6205C156.811 21.8525 154.251 23.3265 151.004 23.3265C145.95 23.3265 142.375 19.7173 142.375 14.7648C142.375 9.94289 145.854 6.20325 150.869 6.20325C155.855 6.20325 158.972 10.3346 158.972 14.828ZM144.081 14.011H157.266C156.904 10.0103 154.082 7.77827 150.869 7.77827C147.13 7.77827 144.405 10.3682 144.081 14.011Z" fill="#1D1D1B"/>
<path d="M158.972 14.828C158.972 15.0891 158.938 15.3544 158.938 15.6155H144.081C144.472 19.3215 147.294 21.7514 151.033 21.7514C153.724 21.7514 155.759 20.5049 156.71 18.7656L158.155 19.6205C156.811 21.8525 154.251 23.3265 151.004 23.3265C145.95 23.3265 142.375 19.7173 142.375 14.7648C142.375 9.94289 145.854 6.20325 150.869 6.20325C155.855 6.20325 158.972 10.3346 158.972 14.828ZM144.081 14.011H157.266C156.904 10.0103 154.082 7.77827 150.869 7.77827C147.13 7.77827 144.405 10.3682 144.081 14.011Z" fill="white"/>
<path d="M179.999 14.7648C179.999 19.6204 176.192 23.3264 171.505 23.3264C168.321 23.3264 165.798 21.684 164.451 19.1614V22.9684H162.812V0.00415039H164.451V10.3724C165.794 7.84561 168.321 6.20742 171.505 6.20742C176.192 6.20321 179.999 9.90916 179.999 14.7648ZM178.356 14.7648C178.356 10.8609 175.307 7.77823 171.404 7.77823C167.5 7.77823 164.451 10.8609 164.451 14.7648C164.451 18.6687 167.5 21.7514 171.404 21.7514C175.307 21.7514 178.356 18.6687 178.356 14.7648Z" fill="#1D1D1B"/>
<path d="M179.999 14.7648C179.999 19.6204 176.192 23.3264 171.505 23.3264C168.321 23.3264 165.798 21.684 164.451 19.1614V22.9684H162.812V0.00415039H164.451V10.3724C165.794 7.84561 168.321 6.20742 171.505 6.20742C176.192 6.20321 179.999 9.90916 179.999 14.7648ZM178.356 14.7648C178.356 10.8609 175.307 7.77823 171.404 7.77823C167.5 7.77823 164.451 10.8609 164.451 14.7648C164.451 18.6687 167.5 21.7514 171.404 21.7514C175.307 21.7514 178.356 18.6687 178.356 14.7648Z" fill="white"/>
<path d="M16.0114 15.6155C16.0114 19.7931 12.9666 22.5221 8.47738 22.5221H0V0.543213H14.129V5.37781H5.02409V8.70474H8.47738C12.9666 8.70895 16.0114 11.4421 16.0114 15.6155ZM10.9873 15.6155C10.9873 14.0152 9.85869 13.4172 8.47738 13.4172H5.02409V17.8138H8.47738C9.85448 17.8138 10.9873 17.22 10.9873 15.6155Z" fill="#1D1D1B"/>
<path d="M16.0114 15.6155C16.0114 19.7931 12.9666 22.5221 8.47738 22.5221H0V0.543213H14.129V5.37781H5.02409V8.70474H8.47738C12.9666 8.70895 16.0114 11.4421 16.0114 15.6155ZM10.9873 15.6155C10.9873 14.0152 9.85869 13.4172 8.47738 13.4172H5.02409V17.8138H8.47738C9.85448 17.8138 10.9873 17.22 10.9873 15.6155Z" fill="white"/>
<path d="M32.9618 6.82642V22.5262H28.3757V14.6763L21.6544 22.5262H18.2012V6.82642H22.7873V14.6763L29.5085 6.82642H32.9618V6.82642Z" fill="#1D1D1B"/>
<path d="M32.9618 6.82642V22.5262H28.3757V14.6763L21.6544 22.5262H18.2012V6.82642H22.7873V14.6763L29.5085 6.82642H32.9618V6.82642Z" fill="white"/>
<path d="M48.2492 18.256C48.2492 20.8628 45.9878 22.9643 41.7512 22.9643C38.6095 22.9643 36.3817 21.7725 35.1562 19.2288L38.9549 16.9674C39.3928 18.1929 40.3699 18.8835 41.8143 18.8835C42.9767 18.8835 43.6673 18.4455 43.6673 17.658C43.6673 16.9674 43.2293 16.5589 42.1934 16.5589H39.9951V12.6002H41.6922C42.6987 12.6002 43.1662 12.2254 43.1662 11.5348C43.1662 10.781 42.5682 10.4019 41.6922 10.4019C40.5004 10.4019 39.6834 10.9662 39.1191 12.2254L35.3205 10.0608C36.6386 7.51718 38.9001 6.38855 41.5996 6.38855C45.4319 6.38855 47.6302 8.61634 47.6302 11.101C47.6302 12.5455 47.0953 13.771 45.9667 14.5543C47.4322 15.3334 48.2492 16.6515 48.2492 18.256Z" fill="#1D1D1B"/>
<path d="M48.2492 18.256C48.2492 20.8628 45.9878 22.9643 41.7512 22.9643C38.6095 22.9643 36.3817 21.7725 35.1562 19.2288L38.9549 16.9674C39.3928 18.1929 40.3699 18.8835 41.8143 18.8835C42.9767 18.8835 43.6673 18.4455 43.6673 17.658C43.6673 16.9674 43.2293 16.5589 42.1934 16.5589H39.9951V12.6002H41.6922C42.6987 12.6002 43.1662 12.2254 43.1662 11.5348C43.1662 10.781 42.5682 10.4019 41.6922 10.4019C40.5004 10.4019 39.6834 10.9662 39.1191 12.2254L35.3205 10.0608C36.6386 7.51718 38.9001 6.38855 41.5996 6.38855C45.4319 6.38855 47.6302 8.61634 47.6302 11.101C47.6302 12.5455 47.0953 13.771 45.9667 14.5543C47.4322 15.3334 48.2492 16.6515 48.2492 18.256Z" fill="white"/>
<path d="M65.3599 6.82642V22.5262H60.6517V16.8746H55.3118V22.5262H50.6035V6.82642H55.3118V12.478H60.6517V6.82642H65.3599V6.82642Z" fill="#1D1D1B"/>
<path d="M65.3599 6.82642V22.5262H60.6517V16.8746H55.3118V22.5262H50.6035V6.82642H55.3118V12.478H60.6517V6.82642H65.3599V6.82642Z" fill="white"/>
<path d="M76.7846 18.7571C78.0733 18.7571 79.1724 18.256 79.7999 17.5653L83.5691 19.7299C82.0319 21.8651 79.7073 22.9642 76.7257 22.9642C71.3562 22.9642 68.0293 19.3551 68.0293 14.6764C68.0293 9.99759 71.4194 6.38428 76.3803 6.38428C80.9665 6.38428 84.3566 9.93442 84.3566 14.6764C84.3566 15.3375 84.2934 15.965 84.1671 16.5588H73.0197C73.6135 18.1928 75.058 18.7571 76.7846 18.7571ZM79.6736 13.0424C79.1724 11.2231 77.7574 10.5619 76.3466 10.5619C74.5568 10.5619 73.3651 11.4421 72.9229 13.0424H79.6736Z" fill="#1D1D1B"/>
<path d="M76.7846 18.7571C78.0733 18.7571 79.1724 18.256 79.7999 17.5653L83.5691 19.7299C82.0319 21.8651 79.7073 22.9642 76.7257 22.9642C71.3562 22.9642 68.0293 19.3551 68.0293 14.6764C68.0293 9.99759 71.4194 6.38428 76.3803 6.38428C80.9665 6.38428 84.3566 9.93442 84.3566 14.6764C84.3566 15.3375 84.2934 15.965 84.1671 16.5588H73.0197C73.6135 18.1928 75.058 18.7571 76.7846 18.7571ZM79.6736 13.0424C79.1724 11.2231 77.7574 10.5619 76.3466 10.5619C74.5568 10.5619 73.3651 11.4421 72.9229 13.0424H79.6736Z" fill="white"/>
<path d="M86.0742 14.6764C86.0742 9.99759 89.6244 6.38428 94.3958 6.38428C97.4406 6.38428 100.14 7.98458 101.492 10.4019L97.3774 12.7897C96.8425 11.6905 95.7139 11.0294 94.3326 11.0294C92.2901 11.0294 90.7825 12.5033 90.7825 14.6721C90.7825 16.8368 92.2901 18.3149 94.3326 18.3149C95.7139 18.3149 96.8762 17.6538 97.3774 16.5588L101.492 18.9129C100.14 21.3639 97.4742 22.9642 94.3958 22.9642C89.6244 22.9642 86.0742 19.3551 86.0742 14.6764Z" fill="#1D1D1B"/>
<path d="M86.0742 14.6764C86.0742 9.99759 89.6244 6.38428 94.3958 6.38428C97.4406 6.38428 100.14 7.98458 101.492 10.4019L97.3774 12.7897C96.8425 11.6905 95.7139 11.0294 94.3326 11.0294C92.2901 11.0294 90.7825 12.5033 90.7825 14.6721C90.7825 16.8368 92.2901 18.3149 94.3326 18.3149C95.7139 18.3149 96.8762 17.6538 97.3774 16.5588L101.492 18.9129C100.14 21.3639 97.4742 22.9642 94.3958 22.9642C89.6244 22.9642 86.0742 19.3551 86.0742 14.6764Z" fill="white"/>
<path d="M103.334 3.51639C103.334 1.8824 104.686 0.53479 106.316 0.53479C107.95 0.53479 109.297 1.88662 109.297 3.51639C109.297 5.15038 107.945 6.49801 106.316 6.49801C104.686 6.49801 103.334 5.14617 103.334 3.51639Z" fill="#FE35C2"/>
</svg>
