<svg width="36" height="36" viewBox="0 0 36 36" fill="none" xmlns="http://www.w3.org/2000/svg">
<rect width="36" height="36" rx="3" fill="#F1AE04"/>
<path d="M27.5145 14.0915C27.5145 13.7846 27.3918 13.4777 27.1708 13.2567L25.5011 11.5871C25.2801 11.3661 24.9732 11.2433 24.6663 11.2433C24.3594 11.2433 24.0525 11.3661 23.8315 11.5871L15.7779 19.6529L12.1685 16.0312C11.9476 15.8103 11.6406 15.6875 11.3337 15.6875C11.0268 15.6875 10.7199 15.8103 10.4989 16.0312L8.82925 17.7009C8.60827 17.9219 8.4855 18.2288 8.4855 18.5357C8.4855 18.8426 8.60827 19.1496 8.82925 19.3705L14.9431 25.4844C15.1641 25.7054 15.471 25.8281 15.7779 25.8281C16.0848 25.8281 16.3918 25.7054 16.6127 25.4844L27.1708 14.9263C27.3918 14.7054 27.5145 14.3984 27.5145 14.0915Z" fill="#1B1B1B"/>
</svg>
