<svg width="157" height="156" viewBox="0 0 157 156" fill="none" xmlns="http://www.w3.org/2000/svg">
<circle cx="78.1582" cy="78" r="78" fill="#326CC7"/>
<path d="M59.1028 54.21C57.7128 52.7734 55.7975 51.9647 53.7985 51.9704H53.418C51.421 51.9664 49.5085 52.7749 48.1199 54.21C46.8135 55.5531 46.1199 57.3759 46.2027 59.2475L46.3472 62.5729C46.5662 66.3782 49.7503 69.3318 53.5613 69.2645H53.6552C57.4662 69.3318 60.6503 66.3782 60.8693 62.5729L61.02 59.2475C61.1028 57.3759 60.4091 55.5531 59.1028 54.21ZM58.4012 62.4704C58.2338 64.9507 56.1403 66.8578 53.6552 66.7939H53.5613C51.0762 66.8578 48.9827 64.9507 48.8153 62.4704L48.7721 61.4612C51.1269 61.3563 53.3879 60.5078 55.2302 59.0375C55.9899 60.161 57.1367 60.9653 58.4518 61.2969L58.4012 62.4704ZM56.8521 56.6312C56.7834 56.1043 56.3853 55.6805 55.8639 55.5787C55.3443 55.4712 54.8147 55.7106 54.552 56.1717C54.536 56.1976 53.003 58.6225 48.677 58.9931C48.6663 57.8486 49.1065 56.7459 49.9024 55.9234C50.8247 54.973 52.0936 54.4379 53.418 54.441H53.7985C55.1229 54.4379 56.3918 54.973 57.3141 55.9234C58.0348 56.6743 58.4625 57.6586 58.5198 58.6978C57.6649 58.3158 57.0448 57.5475 56.8521 56.6312Z" fill="white"/>
<path d="M107.279 83.857C105.889 82.4203 103.974 81.6117 101.975 81.6174H101.595C99.5976 81.6134 97.685 82.4219 96.2964 83.857C94.9901 85.2001 94.2963 87.0229 94.3792 88.8945L94.5238 92.2199C94.7427 96.0252 97.9268 98.9788 101.738 98.9115H101.832C105.643 98.9788 108.827 96.0252 109.046 92.2199L109.197 88.8945C109.279 87.0229 108.586 85.2001 107.279 83.857ZM106.726 88.7944L106.578 92.1174C106.41 94.5977 104.317 96.5048 101.832 96.4409H101.738C99.2528 96.5048 97.1592 94.5977 96.9919 92.1174L96.8436 88.7883C96.7959 87.5914 97.2426 86.4278 98.0789 85.5703C99.0012 84.6199 100.27 84.0849 101.595 84.088H101.975C103.299 84.0849 104.568 84.6199 105.491 85.5703C106.328 86.4293 106.775 87.5956 106.726 88.7944Z" fill="white"/>
<path d="M78.1803 56.3471C76.8548 55.065 74.7514 55.065 73.426 56.3471L59.6352 70.1379C59.4033 70.3698 59.0886 70.5001 58.7606 70.4998H46.1965C42.7871 70.5039 40.024 73.2669 40.02 76.6763V93.9704C40.02 96.0171 41.6792 97.6762 43.7259 97.6762C44.1467 97.6762 44.5643 97.6047 44.9612 97.465V98.9115C44.9612 99.5937 45.5143 100.147 46.1965 100.147H61.02C61.7021 100.147 62.2552 99.5937 62.2552 98.9115V78.8825C62.2551 78.57 62.3734 78.2689 62.5863 78.0401L78.2609 61.182C79.5739 59.8248 79.5377 57.6601 78.1803 56.3471ZM76.4968 59.4546C76.4923 59.459 76.4878 59.4633 76.4833 59.4675L60.7729 76.3588C60.1367 77.0452 59.7836 77.9466 59.7847 78.8825V97.6762H47.4318V79.1469C47.4318 78.4647 46.8787 77.9116 46.1965 77.9116C45.5143 77.9116 44.9612 78.4647 44.9612 79.1469V93.9704C44.9612 94.6525 44.4081 95.2056 43.7259 95.2056C43.0437 95.2056 42.4906 94.6525 42.4906 93.9704V76.6763C42.4906 74.6296 44.1497 72.9704 46.1965 72.9704H58.7606C59.7444 72.9735 60.6884 72.5825 61.3819 71.8846L75.1727 58.0938C75.5487 57.7371 76.1382 57.7371 76.5142 58.0938C76.8851 58.4744 76.8774 59.0837 76.4968 59.4546Z" fill="white"/>
<path d="M53.6081 74.2056C52.9259 74.2056 52.3728 74.7587 52.3728 75.4409V90.2644C52.3728 90.9466 52.9259 91.4997 53.6081 91.4997C54.2903 91.4997 54.8434 90.9466 54.8434 90.2644V75.4409C54.8434 74.7587 54.2903 74.2056 53.6081 74.2056Z" fill="white"/>
<path d="M80.0967 83.857C78.7081 82.4219 76.7955 81.6134 74.7985 81.6174H74.418C72.421 81.6134 70.5085 82.4219 69.1199 83.857C67.8136 85.2 67.1198 87.0229 67.2027 88.8945L67.3472 92.2199C67.5662 96.0252 70.7503 98.9788 74.5613 98.9114H74.6552C78.4662 98.9788 81.6504 96.0252 81.8693 92.2199L82.0138 88.8945C82.0968 87.0229 81.403 85.2 80.0967 83.857ZM79.5494 88.7944L79.4012 92.1174C79.2338 94.5977 77.1403 96.5048 74.6552 96.4409H74.5613C72.0762 96.5048 69.9827 94.5977 69.8154 92.1174L69.6671 88.7882C69.6194 87.5914 70.0661 86.4278 70.9024 85.5703C71.8247 84.6199 73.0937 84.0849 74.418 84.088H74.7985C76.1229 84.0849 77.3918 84.6199 78.3141 85.5703C79.152 86.4293 79.5988 87.5956 79.5494 88.7944Z" fill="white"/>
<path d="M80.991 100.147H68.2255C64.9298 100.15 62.2588 102.821 62.2554 106.117V111.264C62.2554 111.947 62.8085 112.5 63.4907 112.5C64.1729 112.5 64.726 111.947 64.726 111.264V106.117C64.728 104.185 66.2937 102.619 68.2255 102.617H80.991C82.923 102.619 84.4886 104.185 84.4906 106.117V111.264C84.4906 111.947 85.0437 112.5 85.7259 112.5C86.4081 112.5 86.9612 111.947 86.9612 111.264V106.117C86.9578 102.821 84.2868 100.15 80.991 100.147Z" fill="white"/>
<path d="M108.167 100.147H95.4018C92.106 100.15 89.435 102.821 89.4316 106.117V111.264C89.4316 111.947 89.9847 112.5 90.6669 112.5C91.3491 112.5 91.9022 111.947 91.9022 111.264V106.117C91.9042 104.185 93.47 102.619 95.4018 102.617H108.167C110.099 102.619 111.665 104.185 111.667 106.117V111.264C111.667 111.947 112.22 112.5 112.902 112.5C113.584 112.5 114.137 111.947 114.137 111.264V106.117C114.134 102.821 111.463 100.15 108.167 100.147Z" fill="white"/>
<path d="M110.494 38.3823H67.1349C65.1064 38.402 63.4765 40.0596 63.4908 42.0881V60.6175C63.4908 61.2997 64.0439 61.8528 64.7261 61.8528C65.4083 61.8528 65.9614 61.2997 65.9614 60.6175V45.794H111.667V75.441C111.683 76.1057 111.158 76.658 110.494 76.6763H68.3393C67.6571 76.6763 67.104 77.2294 67.104 77.9116C67.104 78.5937 67.6571 79.1468 68.3393 79.1468H110.494C112.522 79.1271 114.152 77.4695 114.138 75.441V42.0881C114.152 40.0596 112.522 38.402 110.494 38.3823ZM111.667 43.3234H65.9614V42.0881C65.9455 41.4234 66.4702 40.8711 67.1349 40.8528H110.494C111.158 40.8711 111.683 41.4234 111.667 42.0881V43.3234Z" fill="white"/>
<path d="M107.961 54.1322C107.279 54.1322 106.726 54.6853 106.726 55.3675V72.9704C106.726 73.6526 107.279 74.2057 107.961 74.2057C108.643 74.2057 109.196 73.6526 109.196 72.9704V55.3675C109.196 54.6853 108.643 54.1322 107.961 54.1322Z" fill="white"/>
<path d="M103.02 61.8528C102.338 61.8528 101.785 62.4059 101.785 63.0881V72.9704C101.785 73.6526 102.338 74.2057 103.02 74.2057C103.702 74.2057 104.255 73.6526 104.255 72.9704V63.0881C104.255 62.4059 103.702 61.8528 103.02 61.8528Z" fill="white"/>
<path d="M98.0788 59.3821C97.3966 59.3821 96.8435 59.9352 96.8435 60.6174V72.9703C96.8435 73.6525 97.3966 74.2056 98.0788 74.2056C98.761 74.2056 99.3141 73.6525 99.3141 72.9703V60.6174C99.3141 59.9352 98.761 59.3821 98.0788 59.3821Z" fill="white"/>
<path d="M93.1374 66.7939C92.4552 66.7939 91.9021 67.347 91.9021 68.0292V72.9704C91.9021 73.6526 92.4552 74.2057 93.1374 74.2057C93.8196 74.2057 94.3727 73.6526 94.3727 72.9704V68.0292C94.3727 67.347 93.8196 66.7939 93.1374 66.7939Z" fill="white"/>
<path d="M108.647 48.472C108.079 48.0934 107.312 48.2466 106.933 48.8142L102.716 55.1389L98.8198 52.2174C98.2761 51.8053 97.5013 51.9122 97.0892 52.4558C97.0422 52.5178 97.0013 52.5838 96.9669 52.6535L92.1567 62.2752L87.4551 65.8056C86.9093 66.215 86.7987 66.9892 87.2081 67.535C87.6174 68.0809 88.3916 68.1914 88.9375 67.7821L93.8787 64.0762C94.0343 63.9616 94.1612 63.8123 94.2492 63.6402L98.5271 55.0821L102.279 57.8998C102.824 58.3091 103.599 58.1987 104.008 57.6529C104.022 57.6346 104.035 57.616 104.048 57.5971L108.989 50.1854C109.367 49.6178 109.214 48.8506 108.647 48.472Z" fill="white"/>
<path d="M84.4904 48.2646H69.6669C68.9847 48.2646 68.4316 48.8177 68.4316 49.4999C68.4316 50.1821 68.9847 50.7352 69.6669 50.7352H84.4904C85.1726 50.7352 85.7257 50.1821 85.7257 49.4999C85.7257 48.8177 85.1726 48.2646 84.4904 48.2646Z" fill="white"/>
<path d="M91.9022 48.2646H89.4316C88.7494 48.2646 88.1963 48.8177 88.1963 49.4999C88.1963 50.1821 88.7494 50.7352 89.4316 50.7352H91.9022C92.5843 50.7352 93.1375 50.1821 93.1375 49.4999C93.1375 48.8177 92.5843 48.2646 91.9022 48.2646Z" fill="white"/>
</svg>
