<svg width="157" height="156" viewBox="0 0 157 156" fill="none" xmlns="http://www.w3.org/2000/svg">
<circle cx="78.1582" cy="78" r="78" fill="#326CC7"/>
<path d="M128.266 63.8381L79.4152 38.5704C78.9308 38.3195 78.3542 38.3195 77.8689 38.5704L29.0181 63.8381C28.4596 64.1276 28.1084 64.7042 28.1084 65.3334C28.1084 65.9634 28.4596 66.54 29.0181 66.8296L51.6899 78.557V97.3391C51.6899 104.062 63.2758 109.131 78.6421 109.131C94.0083 109.131 105.594 104.062 105.594 97.3391V78.557L115.701 73.3348V82.4952C113.692 83.2058 112.344 85.1009 112.332 87.232V110.815C112.332 111.745 113.087 112.5 114.017 112.5H120.755C121.685 112.5 122.439 111.745 122.439 110.815V87.232C122.431 85.0984 121.082 83.2001 119.07 82.4886V71.587L128.266 66.8296C128.825 66.54 129.177 65.9634 129.177 65.3334C129.177 64.7042 128.825 64.1276 128.266 63.8381ZM119.07 109.131H115.701V87.232C115.701 86.3018 116.456 85.5475 117.386 85.5475C118.316 85.5475 119.07 86.3018 119.07 87.232V109.131ZM102.225 97.3391C102.225 101.315 92.1404 105.762 78.6421 105.762C65.1446 105.762 55.0589 101.315 55.0589 97.3391V80.3007L77.8689 92.0923C78.3534 92.3448 78.9308 92.3448 79.4152 92.0923L102.225 80.3007V97.3391ZM117.347 68.6843L78.8592 63.6629C77.9363 63.5428 77.0916 64.1934 76.9715 65.1163C76.8514 66.0391 77.5021 66.8847 78.4249 67.0047L112.102 71.3978L103.141 76.0335L78.6421 88.7043L54.1476 76.0335H54.1377L33.4589 65.3334L78.6421 41.9625L123.824 65.3334L117.347 68.6843Z" fill="white"/>
</svg>
