<svg width="157" height="156" viewBox="0 0 157 156" fill="none" xmlns="http://www.w3.org/2000/svg">
<circle cx="78.0798" cy="78" r="78" fill="#326CC7"/>
<path d="M89.3841 94.8305L79.0213 88.8476V76.8814C79.0213 76.1881 78.4595 75.6264 77.7663 75.6264C77.0729 75.6264 76.5112 76.1882 76.5112 76.8814V88.8476L66.1485 94.8305C65.5482 95.177 65.3425 95.9446 65.6892 96.5449C65.9215 96.9476 66.3434 97.1727 66.7773 97.1727C66.9901 97.1727 67.2062 97.1184 67.4036 97.0044L77.7664 91.0215L88.1292 97.0044C88.327 97.1185 88.5427 97.1727 88.7555 97.1727C89.1892 97.1727 89.6111 96.9476 89.8437 96.5449C90.1902 95.9445 89.9843 95.177 89.3841 94.8305Z" fill="white"/>
<path d="M91.8584 71.5902V67.127C91.8584 62.0387 87.872 60.4279 87.3726 60.2462L82.372 58.2409V57.5406C83.7296 56.743 84.773 55.4677 85.27 53.9466C87.0868 53.8007 88.5215 52.2787 88.5215 50.4251C88.5215 49.323 88.0143 48.3374 87.2215 47.6884V45.4742C87.2215 40.834 83.4462 37.0587 78.806 37.0587H78.2093C73.5691 37.0587 69.7938 40.834 69.7938 45.4742V47.6787C68.9937 48.3277 68.4806 49.3171 68.4806 50.4251C68.4806 52.2925 69.9368 53.8227 71.7727 53.9488C72.2701 55.4691 73.3134 56.7436 74.6702 57.5406V58.2335L69.536 60.2442C69.0616 60.4156 65.0447 62.019 65.0447 67.127V71.5978C65.0447 72.291 65.6065 72.854 66.2997 72.854H69.4885C70.1819 72.854 70.7435 72.2921 70.7435 71.5989C70.7435 70.9057 70.1817 70.3439 69.4885 70.3439H67.5547V67.1269C67.5547 63.6541 70.2697 62.6472 70.3751 62.6097C70.3945 62.6032 70.4138 62.5962 70.433 62.5886L75.1345 60.7474L77.6319 63.1796C77.8663 63.408 78.1807 63.5355 78.5074 63.5355C78.5141 63.5355 78.5206 63.5355 78.5272 63.5354C78.8612 63.5301 79.1793 63.3918 79.4111 63.1513L81.7691 60.7038L86.46 62.5849C86.4822 62.5937 86.4945 62.5985 86.5173 62.6061C86.6327 62.6472 89.3479 63.6541 89.3479 67.1269V70.3439H82.3086H74.5942H73.4769C72.7836 70.3439 72.2219 70.9059 72.2219 71.5989C72.2219 72.2923 72.7837 72.854 73.4769 72.854H74.5942H82.3086H90.6031C91.2968 72.8543 91.8584 72.2834 91.8584 71.5902ZM85.5912 49.688C85.6365 49.7023 85.6834 49.7133 85.731 49.7223C85.9044 49.9062 86.0116 50.1532 86.0116 50.4251C86.0116 50.7642 85.8456 51.0645 85.5912 51.2512V49.688ZM71.4513 51.2802C71.1741 51.0964 70.9909 50.7819 70.9909 50.4251C70.9909 50.1675 71.0869 49.9323 71.2444 49.7519C71.3157 49.7409 71.3846 49.7241 71.4511 49.7015V51.2802H71.4513ZM72.7104 46.2099C72.7097 46.2099 72.709 46.2099 72.7083 46.2099C72.7077 46.2099 72.7068 46.2099 72.7062 46.2099C72.5653 46.2099 72.4302 46.2341 72.3038 46.2771V45.4744C72.304 42.2181 74.9531 39.5689 78.2093 39.5689H78.806C82.0621 39.5689 84.7113 42.2181 84.7113 45.4742V46.2668C84.69 46.2602 84.668 46.2555 84.6461 46.2498C84.6354 46.2471 84.6252 46.2434 84.6143 46.2409C82.8797 45.8463 82.3117 43.5291 82.3075 43.5117C82.1988 43.0306 81.8181 42.6581 81.3349 42.5593C80.8516 42.4602 80.3557 42.6536 80.0664 43.0534C77.8089 46.1747 72.7732 46.2099 72.7104 46.2099ZM79.8618 59.0658L78.4795 60.5011L77.1806 59.2361V58.3858C77.4339 58.4159 77.6909 58.4331 77.9522 58.4331H79.0903C79.3515 58.4331 79.6087 58.4159 79.8618 58.3858V59.0658ZM79.0903 55.9232H77.9522C75.7517 55.9232 73.9613 54.1331 73.9613 51.9325V48.641H73.9615C75.5871 48.4646 78.4574 47.8935 80.6745 46.0458C81.1716 46.8961 81.9388 47.8135 83.0812 48.3511V51.9323C83.081 54.1329 81.2909 55.9232 79.0903 55.9232Z" fill="white"/>
<path d="M113.654 98.5676L108.653 96.5623V95.862C110.011 95.0644 111.054 93.7891 111.551 92.2682C113.368 92.1222 114.803 90.6001 114.803 88.7465C114.803 87.6444 114.296 86.659 113.503 86.01V83.7959C113.503 79.1557 109.727 75.3804 105.087 75.3804H104.49C99.8502 75.3804 96.0749 79.1557 96.0749 83.7959V86.0004C95.2749 86.6494 94.7617 87.6388 94.7617 88.7468C94.7617 90.6142 96.2179 92.1444 98.0539 92.2705C98.5512 93.7908 99.5944 95.0653 100.951 95.8625V96.5554L95.8172 98.5661C95.3429 98.7373 91.3259 100.341 91.3259 105.449V109.92C91.3259 110.613 91.8877 111.176 92.5809 111.176H95.7698C96.4631 111.176 97.0248 110.614 97.0248 109.921C97.0248 109.228 96.463 108.666 95.7698 108.666H93.836V105.449C93.836 101.976 96.5509 100.969 96.6562 100.932C96.6756 100.925 96.6948 100.918 96.7141 100.911L101.416 99.0694L103.913 101.502C104.147 101.73 104.462 101.858 104.788 101.858C104.795 101.858 104.802 101.858 104.808 101.857C105.142 101.852 105.46 101.714 105.692 101.473L108.05 99.0258L112.741 100.907C112.763 100.916 112.776 100.921 112.798 100.928C112.914 100.969 115.629 101.976 115.629 105.449V108.666H108.59H100.875H99.7579C99.0645 108.666 98.5028 109.228 98.5028 109.921C98.5028 110.614 99.0647 111.176 99.7579 111.176H100.875H108.59H116.884C117.577 111.176 118.139 110.605 118.139 109.912V105.449C118.14 100.36 114.153 98.7494 113.654 98.5676ZM111.872 88.0093C111.918 88.0235 111.964 88.0345 112.012 88.0435C112.186 88.2275 112.293 88.4743 112.293 88.7464C112.293 89.0856 112.127 89.3857 111.872 89.5726V88.0093ZM97.7326 89.6016C97.4552 89.4177 97.2722 89.1031 97.2722 88.7464C97.2722 88.4887 97.3682 88.2537 97.5256 88.0733C97.5967 88.0621 97.666 88.0456 97.7324 88.0229V89.6016H97.7326ZM98.9915 84.5308C98.9901 84.5308 98.9888 84.5308 98.9874 84.5308C98.9443 84.5308 98.9013 84.533 98.8594 84.5374C98.8463 84.5388 98.8335 84.5414 98.8204 84.5433C98.7917 84.547 98.7631 84.5505 98.7352 84.5563C98.7174 84.56 98.6998 84.5654 98.6822 84.5698C98.6597 84.5754 98.637 84.5803 98.6151 84.587C98.6049 84.5903 98.5954 84.5946 98.5854 84.5977V83.7951C98.5852 80.5393 101.234 77.8902 104.491 77.8902H105.087C108.344 77.8902 110.993 80.5393 110.993 83.7955V84.5881C110.972 84.5817 110.951 84.5772 110.931 84.5718C110.919 84.5689 110.908 84.5648 110.896 84.5619C109.161 84.1674 108.593 81.8502 108.589 81.8327C108.48 81.3517 108.1 80.9791 107.616 80.8803C107.133 80.781 106.637 80.9746 106.348 81.3743C104.09 84.4958 99.0543 84.5308 98.9915 84.5308ZM106.143 97.3872L104.761 98.8223L103.462 97.5572V96.7072C103.715 96.7373 103.972 96.7545 104.233 96.7545H105.372C105.633 96.7545 105.89 96.7371 106.143 96.7072V97.3872H106.143ZM105.372 94.2443H104.233C102.033 94.2443 100.243 92.4542 100.243 90.2536V86.9632H100.243C101.868 86.7868 104.738 86.2149 106.956 84.3672C107.453 85.2174 108.22 86.135 109.362 86.6723V90.2536C109.362 92.454 107.572 94.2443 105.372 94.2443Z" fill="white"/>
<path d="M61.0495 98.5676L56.049 96.5623V95.862C57.4065 95.0644 58.45 93.7891 58.9469 92.2682C60.7638 92.1222 62.1984 90.6001 62.1984 88.7465C62.1984 87.6444 61.6912 86.659 60.8986 86.01V83.7959C60.8986 79.1557 57.1233 75.3804 52.4831 75.3804H51.8864C47.2462 75.3804 43.4709 79.1557 43.4709 83.7959V86.0004C42.6708 86.6494 42.1577 87.6388 42.1577 88.7468C42.1577 90.6142 43.6139 92.1444 45.4498 92.2705C45.9472 93.7908 46.9905 95.0653 48.3473 95.8625V96.5554L43.2131 98.5661C42.7387 98.737 38.7219 100.341 38.7219 105.448V109.919C38.7219 110.612 39.2837 111.176 39.9769 111.176H43.1659C43.8593 111.176 44.4209 110.614 44.4209 109.92C44.4209 109.227 43.8591 108.665 43.1659 108.665H41.2321V105.448C41.2321 101.976 43.9471 100.969 44.0525 100.931C44.0719 100.925 44.0912 100.918 44.1104 100.91L48.8119 99.069L51.3093 101.501C51.5437 101.73 51.8581 101.857 52.1848 101.857C52.1915 101.857 52.198 101.857 52.2046 101.857C52.5386 101.852 52.8567 101.713 53.0885 101.473L55.4465 99.0254L60.1374 100.906C60.1596 100.915 60.1719 100.92 60.1947 100.928C60.3101 100.969 63.0253 101.976 63.0253 105.449V108.666H55.986H48.2714H47.1542C46.4608 108.666 45.8992 109.227 45.8992 109.921C45.8992 110.614 46.461 111.176 47.1542 111.176H48.2714H55.986H64.2805C64.9737 111.176 65.5355 110.605 65.5355 109.912V105.449C65.5355 100.36 61.5488 98.7494 61.0495 98.5676ZM59.268 88.0093C59.3133 88.0235 59.3602 88.0345 59.4078 88.0435C59.5812 88.2275 59.6884 88.4743 59.6884 88.7464C59.6884 89.0856 59.5224 89.3857 59.268 89.5726V88.0093ZM45.1281 89.6016C44.8509 89.4177 44.6677 89.1031 44.6677 88.7464C44.6677 88.4887 44.7637 88.2537 44.9212 88.0733C44.9925 88.0621 45.0614 88.0456 45.1279 88.0229V89.6016H45.1281ZM46.3871 84.5308C46.3856 84.5308 46.3843 84.5308 46.3829 84.5308C46.3398 84.5308 46.2969 84.533 46.255 84.5374C46.2418 84.5388 46.2291 84.5414 46.2159 84.5433C46.1875 84.547 46.1587 84.5505 46.1307 84.5563C46.1129 84.56 46.0954 84.5654 46.0777 84.5698C46.0552 84.5754 46.0325 84.5803 46.0107 84.587C46.0004 84.5903 45.9911 84.5946 45.9809 84.5977V83.7951C45.9809 80.5393 48.6301 77.8902 51.8862 77.8902H52.4829C55.739 77.8902 58.3882 80.5393 58.3882 83.7955V84.5881C58.3681 84.5817 58.347 84.5772 58.3262 84.5718C58.3144 84.5689 58.3032 84.5648 58.2914 84.5619C56.5568 84.1674 55.9888 81.8502 55.9846 81.8327C55.8759 81.3517 55.4952 80.9791 55.012 80.8803C54.529 80.781 54.0326 80.9746 53.7435 81.3743C51.4857 84.4958 46.45 84.5308 46.3871 84.5308ZM53.5388 97.3872L52.1564 98.8223L50.8575 97.5572V96.7072C51.1108 96.7373 51.3678 96.7545 51.629 96.7545H52.7671C53.0284 96.7545 53.2855 96.7371 53.5386 96.7072V97.3872H53.5388ZM52.7671 94.2443H51.629C49.4284 94.2443 47.6381 92.4542 47.6381 90.2536V86.963H47.6383C49.2639 86.7867 52.1344 86.2146 54.3512 84.3672C54.8484 85.2174 55.6156 86.135 56.758 86.6723V90.2536C56.7578 92.454 54.9677 94.2443 52.7671 94.2443Z" fill="white"/>
</svg>
